<?xml version="1.0" encoding="UTF-8"?>
<svg version="1.1" xmlns="http://www.w3.org/2000/svg" width="613" height="407">
<path d="M0 0 C4.22971717 0.60326598 7.95650898 1.97328773 11.9375 3.5 C17.86610791 5.74811784 23.02584712 6.58434233 29.34765625 6.6640625 C32.64082285 7.05362554 34.46412203 8.16089674 37.1875 10 C39.22855639 10.88693303 39.22855639 10.88693303 41.1875 11 C42.1775 10.34 43.1675 9.68 44.1875 9 C45.5075 9 46.8275 9 48.1875 9 C48.5175 9.99 48.8475 10.98 49.1875 12 C46.69663709 16.78245679 44.33026123 19.28574626 39.1875 21 C35.04548356 20.78575777 31.75638951 20.14133371 28.1875 18 C28.105 19.0725 28.0225 20.145 27.9375 21.25 C27.13179847 25.27850766 26.40558534 26.56205656 23.1875 29 C22.5275 29 21.8675 29 21.1875 29 C21.19910156 29.91523437 21.21070313 30.83046875 21.22265625 31.7734375 C21.23167969 32.96195313 21.24070312 34.15046875 21.25 35.375 C21.26160156 36.55835938 21.27320313 37.74171875 21.28515625 38.9609375 C21.1875 42 21.1875 42 20.1875 44 C21.26644531 44.38671875 21.26644531 44.38671875 22.3671875 44.78125 C28.05892248 47.24083631 33.61258776 50.99168937 36.53515625 56.57421875 C37.98973977 61.10034143 38.44734325 64.35382648 37.1875 69 C36.8575 69.33 36.5275 69.66 36.1875 70 C34.15625 69.94921875 34.15625 69.94921875 31.6875 69.6875 C30.8728125 69.60886719 30.058125 69.53023438 29.21875 69.44921875 C28.21328125 69.22685547 28.21328125 69.22685547 27.1875 69 C25.83310332 66.29120665 26.12248549 63.99066732 26.1875 61 C23.8775 61 21.5675 61 19.1875 61 C18.8632605 61.79434448 18.8632605 61.79434448 18.5324707 62.60473633 C17.53799742 65.01445207 16.51937447 67.41321825 15.5 69.8125 C15.16033203 70.64587891 14.82066406 71.47925781 14.47070312 72.33789062 C12.45807072 77.02149314 11.12018849 79.92988811 6.1875 82 C5.383125 82.391875 4.57875 82.78375 3.75 83.1875 C0.78572624 84.12739168 -1.72113219 84.14378455 -4.8125 84 C-5.8025 80.04 -5.8025 80.04 -6.8125 76 C-7.32167969 76.60199219 -7.83085937 77.20398438 -8.35546875 77.82421875 C-11.34251112 80.46934212 -14.41114951 81.56532473 -18.125 82.8125 C-26.28417072 85.69810653 -34.03308673 89.22206654 -41.8125 93 C-40.90886719 92.62746094 -40.00523437 92.25492187 -39.07421875 91.87109375 C-37.89472656 91.39800781 -36.71523438 90.92492187 -35.5 90.4375 C-33.74236328 89.72400391 -33.74236328 89.72400391 -31.94921875 88.99609375 C-28.8125 88 -28.8125 88 -25.8125 89 C-24.94737317 91.71073075 -24.52233928 93.2205657 -24.8125 96 C-27.40868341 100.45280121 -30.9338052 104.1213052 -34.5625 107.75 C-38.15676433 112.94171514 -40.30942184 119.84193341 -39.546875 126.22265625 C-39.04865166 127.84188211 -38.43602653 129.42477508 -37.8125 131 C-37.6875 133.9375 -37.6875 133.9375 -37.8125 136 C-41.02701269 137.60725635 -44.24862536 137.05748185 -47.8125 137 C-51.59598133 129.43303734 -51.11740768 123.05574455 -49.8359375 114.8828125 C-49.82820313 114.26148438 -49.82046875 113.64015625 -49.8125 113 C-50.8025 112.01 -50.8025 112.01 -51.8125 111 C-51.42371812 107.98694043 -50.54793126 106.60314689 -48.8125 104 C-58.98211824 111.18020318 -58.98211824 111.18020318 -63.62890625 122.39453125 C-63.97448427 127.29879802 -63.10501069 131.56403843 -62.125 136.375 C-62.021875 137.24125 -61.91875 138.1075 -61.8125 139 C-63.8125 141 -63.8125 141 -65.6875 141.23046875 C-66.38875 141.21628906 -67.09 141.20210937 -67.8125 141.1875 C-68.864375 141.17783203 -68.864375 141.17783203 -69.9375 141.16796875 C-71.8125 141 -71.8125 141 -73.8125 140 C-77.54882853 132.92766385 -76.59692374 127.61644281 -74.8125 120 C-74.58046875 119.26265625 -74.3484375 118.5253125 -74.109375 117.765625 C-74.01140625 117.18296875 -73.9134375 116.6003125 -73.8125 116 C-74.4725 115.34 -75.1325 114.68 -75.8125 114 C-76.125 111.625 -76.125 111.625 -75.8125 109 C-75.0390625 108.01 -75.0390625 108.01 -74.25 107 C-72.57638422 105.09727287 -72.57638422 105.09727287 -72.875 102.6875 C-73.87491315 99.82108231 -75.321266 97.43482416 -76.890625 94.84765625 C-78.34331297 91.93612486 -78.54932621 89.22387898 -78.8125 86 C-79.575625 86.9075 -80.33875 87.815 -81.125 88.75 C-81.55425781 89.26046875 -81.98351562 89.7709375 -82.42578125 90.296875 C-83.89601935 92.00780637 -83.89601935 92.00780637 -85.0625 94.1875 C-86.8125 96 -86.8125 96 -89.94921875 96.390625 C-91.12097656 96.34421875 -92.29273438 96.2978125 -93.5 96.25 C-94.67949219 96.21390625 -95.85898438 96.1778125 -97.07421875 96.140625 C-97.97785156 96.09421875 -98.88148438 96.0478125 -99.8125 96 C-104.77583003 88.24479683 -104.77583003 88.24479683 -103.8125 83 C-100.35642262 75.59607139 -100.35642262 75.59607139 -96.9609375 74.28515625 C-94.52132946 73.96135373 -92.14902842 73.79408708 -89.6875 73.75 C-88.81867188 73.72421875 -87.94984375 73.6984375 -87.0546875 73.671875 C-86.31476563 73.78015625 -85.57484375 73.8884375 -84.8125 74 C-84.1525 74.99 -83.4925 75.98 -82.8125 77 C-81.68050647 76.0919838 -80.55717637 75.17316174 -79.4375 74.25 C-78.81101563 73.73953125 -78.18453125 73.2290625 -77.5390625 72.703125 C-75.70150929 71.10168341 -75.70150929 71.10168341 -74.89453125 68.89453125 C-73.8125 67 -73.8125 67 -71.53515625 66.05859375 C-70.65730469 65.85363281 -69.77945313 65.64867187 -68.875 65.4375 C-64.38530238 64.37293252 -62.26249902 63.1416794 -59.66503906 59.30517578 C-59.30635742 58.6914209 -58.94767578 58.07766602 -58.578125 57.4453125 C-57.96952637 56.40842285 -57.96952637 56.40842285 -57.34863281 55.35058594 C-56.71199707 54.2489209 -56.71199707 54.2489209 -56.0625 53.125 C-55.6200293 52.36993164 -55.17755859 51.61486328 -54.72167969 50.83691406 C-52.02574446 46.20553585 -49.50661048 41.51819767 -47.0625 36.75 C-44.4966496 31.91945535 -42.38855577 28.98438419 -37.8125 26 C-37.008125 25.4225 -36.20375 24.845 -35.375 24.25 C-32.8125 23 -32.8125 23 -29.640625 22.89453125 C-24.19035457 21.62094765 -21.69741821 18.47338833 -18 14.4375 C-16.6852422 13.03636197 -15.36643688 11.63900723 -14.04296875 10.24609375 C-13.46957764 9.62404053 -12.89618652 9.0019873 -12.30541992 8.36108398 C-10.8125 7 -10.8125 7 -8.8125 7 C-8.4103125 6.1028125 -8.4103125 6.1028125 -8 5.1875 C-5.79214975 1.12040744 -4.79605349 0 0 0 Z M2.1875 64 C1.29958369 65.1411908 0.45133962 66.31346106 -0.375 67.5 C-0.83003906 68.1496875 -1.28507812 68.799375 -1.75390625 69.46875 C-2.10324219 69.9740625 -2.45257813 70.479375 -2.8125 71 C-1.8225 71.495 -1.8225 71.495 -0.8125 72 C1.79681266 71.10636395 1.79681266 71.10636395 4.1875 70 C3.8575 68.02 3.5275 66.04 3.1875 64 C2.8575 64 2.5275 64 2.1875 64 Z M-94.8125 82 C-95.1425 83.98 -95.4725 85.96 -95.8125 88 C-93.3375 88.495 -93.3375 88.495 -90.8125 89 C-89.9875 88.05125 -89.1625 87.1025 -88.3125 86.125 C-87.8484375 85.59132813 -87.384375 85.05765625 -86.90625 84.5078125 C-85.61677542 83.04063579 -85.61677542 83.04063579 -85.8125 81 C-89.08525026 81 -91.659132 81.29925156 -94.8125 82 Z M-44.8125 99 C-45.4725 100.32 -46.1325 101.64 -46.8125 103 C-45.8225 102.34 -44.8325 101.68 -43.8125 101 C-44.1425 100.34 -44.4725 99.68 -44.8125 99 Z " fill="#F4F4F4" transform="translate(333.8125,85)"/>
<path d="M0 0 C6.6 0 13.2 0 20 0 C21.65151974 3.89351023 23.2963974 7.78960146 24.9375 11.6875 C25.64036133 13.34168945 25.64036133 13.34168945 26.35742188 15.02929688 C26.80537109 16.09599609 27.25332031 17.16269531 27.71484375 18.26171875 C28.12855225 19.24100342 28.54226074 20.22028809 28.96850586 21.22924805 C29.93486737 23.82504374 30.54515534 26.27310833 31 29 C35.03564085 19.34793732 39.02188379 9.67587919 43 0 C46.27053517 -0.11608726 49.5405418 -0.18720711 52.8125 -0.25 C53.74126953 -0.28351563 54.67003906 -0.31703125 55.62695312 -0.3515625 C56.9659668 -0.37089844 56.9659668 -0.37089844 58.33203125 -0.390625 C59.15421143 -0.41157227 59.9763916 -0.43251953 60.82348633 -0.45410156 C63 0 63 0 64.79174805 2.02441406 C65.19047119 2.67635742 65.58919434 3.32830078 66 4 C65.34 4.33 64.68 4.66 64 5 C63.34444881 7.52733235 63.34444881 7.52733235 63 10 C61.68 10 60.36 10 59 10 C59 18.58 59 27.16 59 36 C60.32 36 61.64 36 63 36 C63 39.3 63 42.6 63 46 C57.06 46 51.12 46 45 46 C45 42.7 45 39.4 45 36 C45.99 36 46.98 36 48 36 C47.67 31.38 47.34 26.76 47 22 C43.26201737 29.96946296 39.53588869 37.93817378 36 46 C33.03 46 30.06 46 27 46 C17 26.38297872 17 26.38297872 17 23 C16.34 23 15.68 23 15 23 C15 27.29 15 31.58 15 36 C15.99 36 16.98 36 18 36 C18 39.3 18 42.6 18 46 C12.06 46 6.12 46 0 46 C0 42.7 0 39.4 0 36 C1.32 36 2.64 36 4 36 C4 27.42 4 18.84 4 10 C2.68 10 1.36 10 0 10 C0 6.7 0 3.4 0 0 Z " fill="#E6E6E6" transform="translate(219,246)"/>
<path d="M0 0 C6.6 0 13.2 0 20 0 C20.33 2.97 20.66 5.94 21 9 C19.35 9.33 17.7 9.66 16 10 C16 12.31 16 14.62 16 17 C21.94 17 27.88 17 34 17 C34 14.69 34 12.38 34 10 C32.68 10 31.36 10 30 10 C30 6.7 30 3.4 30 0 C36.6 0 43.2 0 50 0 C50 3.3 50 6.6 50 10 C48.35 10.66 46.7 11.32 45 12 C45 19.92 45 27.84 45 36 C46.65 36 48.3 36 50 36 C50 39.3 50 42.6 50 46 C43.4 46 36.8 46 30 46 C30 42.7 30 39.4 30 36 C31.32 36 32.64 36 34 36 C34 33.03 34 30.06 34 27 C28.06 27 22.12 27 16 27 C16 29.97 16 32.94 16 36 C17.65 36.33 19.3 36.66 21 37 C20.67 39.97 20.34 42.94 20 46 C13.4 46 6.8 46 0 46 C0 42.7 0 39.4 0 36 C1.32 36 2.64 36 4 36 C4 27.42 4 18.84 4 10 C2.68 10 1.36 10 0 10 C0 6.7 0 3.4 0 0 Z " fill="#E4E4E4" transform="translate(117,246)"/>
<path d="M0 0 C1.56047445 0.00015913 3.12095416 0.00585397 4.68139648 0.01586914 C5.91115456 0.01799156 5.91115456 0.01799156 7.16575623 0.02015686 C9.79470406 0.0257725 12.42356797 0.0383276 15.05249023 0.05102539 C16.8304838 0.05603838 18.60847869 0.06060163 20.38647461 0.06469727 C24.75437181 0.07489787 29.12208664 0.09447007 33.48999023 0.11352539 C33.48999023 5.72352539 33.48999023 11.33352539 33.48999023 17.11352539 C29.52999023 17.11352539 25.56999023 17.11352539 21.48999023 17.11352539 C21.48999023 15.13352539 21.48999023 13.15352539 21.48999023 11.11352539 C18.51999023 11.11352539 15.54999023 11.11352539 12.48999023 11.11352539 C12.48999023 13.09352539 12.48999023 15.07352539 12.48999023 17.11352539 C15.12999023 17.11352539 17.76999023 17.11352539 20.48999023 17.11352539 C21.77316916 20.96306216 21.55642661 24.06090674 21.48999023 28.11352539 C18.51999023 28.11352539 15.54999023 28.11352539 12.48999023 28.11352539 C12.48999023 30.75352539 12.48999023 33.39352539 12.48999023 36.11352539 C15.45999023 36.11352539 18.42999023 36.11352539 21.48999023 36.11352539 C21.48999023 33.80352539 21.48999023 31.49352539 21.48999023 29.11352539 C25.44999023 29.11352539 29.40999023 29.11352539 33.48999023 29.11352539 C33.48999023 34.72352539 33.48999023 40.33352539 33.48999023 46.11352539 C21.27999023 46.11352539 9.06999023 46.11352539 -3.51000977 46.11352539 C-3.51000977 42.81352539 -3.51000977 39.51352539 -3.51000977 36.11352539 C-2.19000977 36.11352539 -0.87000977 36.11352539 0.48999023 36.11352539 C0.48999023 27.86352539 0.48999023 19.61352539 0.48999023 11.11352539 C-0.83000977 11.11352539 -2.15000977 11.11352539 -3.51000977 11.11352539 C-3.70407454 9.46845321 -3.89008912 7.82242945 -4.07250977 6.17602539 C-4.17692383 5.25950195 -4.28133789 4.34297852 -4.38891602 3.39868164 C-4.42887695 2.64458008 -4.46883789 1.89047852 -4.51000977 1.11352539 C-3.51000977 0.11352539 -3.51000977 0.11352539 0 0 Z " fill="#E4E4E4" transform="translate(290.510009765625,245.886474609375)"/>
<path d="M0 0 C11.88 0 23.76 0 36 0 C36 5.61 36 11.22 36 17 C32.37 17 28.74 17 25 17 C25 15.02 25 13.04 25 11 C21.7 11 18.4 11 15 11 C15.33 12.98 15.66 14.96 16 17 C18.64 17 21.28 17 24 17 C25.62651522 20.25303044 25.11453156 23.39225602 25 27 C24 28 24 28 21.93359375 28.09765625 C21.10988281 28.08605469 20.28617187 28.07445312 19.4375 28.0625 C18.61121094 28.05347656 17.78492188 28.04445313 16.93359375 28.03515625 C15.97646484 28.01775391 15.97646484 28.01775391 15 28 C15.33 30.31 15.66 32.62 16 35 C18.97 35.33 21.94 35.66 25 36 C25 33.69 25 31.38 25 29 C28.96 29 32.92 29 37 29 C36.67 34.61 36.34 40.22 36 46 C24.12 46 12.24 46 0 46 C0 42.7 0 39.4 0 36 C1.32 36 2.64 36 4 36 C4 27.75 4 19.5 4 11 C2.35 10.67 0.7 10.34 -1 10 C-0.67 6.7 -0.34 3.4 0 0 Z " fill="#EAEAEA" transform="translate(415,246)"/>
<path d="M0 0 C5.35327499 3.93072639 8.32692462 8.55706213 9.83984375 15.01953125 C11.0737039 24.04473303 8.91355041 30.07878016 3.8828125 37.51953125 C0.19116097 41.99720427 -4.06889829 44.03465318 -9.8203125 44.76171875 C-16.60299968 45.10439807 -22.26391262 43.36330053 -27.54296875 39.02734375 C-32.4838913 33.86682465 -34.55378651 27.76912998 -34.87890625 20.6953125 C-34.57799422 14.11172193 -32.84530438 9.62204736 -28.75 4.5 C-28.028125 3.571875 -27.30625 2.64375 -26.5625 1.6875 C-18.52139463 -4.56669307 -8.67776087 -5.1492829 0 0 Z M-18.5625 10.625 C-21.37181428 14.31724163 -22.92409967 17.00166969 -22.59375 21.7421875 C-21.90571901 25.7777539 -21.23922738 27.98502381 -18.375 31 C-15.23648373 32.90317695 -15.23648373 32.90317695 -11.75 33.5 C-7.14617212 31.77356455 -4.18428061 29.80680416 -1.75 25.5 C-0.87987421 20.69655048 -1.27853219 17.39416308 -3.5625 13.0625 C-6.32144733 9.83059027 -7.87613304 8.61327905 -12.125 8.0625 C-15.84772821 8.20354017 -15.84772821 8.20354017 -18.5625 10.625 Z " fill="#E5E5E5" transform="translate(359.75,248.5)"/>
<path d="M0 0 C5.85299979 5.52468839 7.33622151 11.57918282 7.64453125 19.46875 C7.35986279 27.52080073 5.27852068 32.55917978 -0.29296875 38.28125 C-6.13858704 41.8158099 -12.04074929 44.05633533 -18.98046875 42.90625 C-25.68027884 40.9887575 -30.1797279 37.74264188 -33.98046875 31.90625 C-37.44405903 25.13650536 -36.90093979 16.13106071 -34.79296875 8.96875 C-33.28903874 5.04576275 -31.23899266 2.60844056 -27.98046875 -0.09375 C-27.38234375 -0.650625 -26.78421875 -1.2075 -26.16796875 -1.78125 C-17.4823349 -6.99263031 -7.92721951 -5.88641169 0 0 Z M-22.98046875 10.90625 C-25.3359176 15.61714769 -25.41129398 19.91380225 -23.98046875 24.90625 C-21.85765079 28.27347849 -19.8669787 30.76315884 -15.98046875 31.90625 C-12.76087065 31.97624126 -10.81504717 31.56253212 -8.26171875 29.5546875 C-5.35355244 26.55049684 -3.58975874 24.09759736 -3.41796875 19.84375 C-4.11966762 14.93185794 -5.33330561 11.67106765 -8.73046875 8.03125 C-14.31835383 5.23730746 -18.87435163 6.44817999 -22.98046875 10.90625 Z " fill="#E4E4E4" transform="translate(206.98046875,250.09375)"/>
<path d="M0 0 C3.99974981 -0.11710979 7.99905281 -0.18755489 12 -0.25 C13.12535156 -0.28351563 14.25070312 -0.31703125 15.41015625 -0.3515625 C22.4664876 -0.43409269 27.02360173 0.16002448 33 4 C36.3435476 7.51072498 37.27275047 10.27036909 37.5 15 C37.30276179 19.68440761 36.14463293 22.41861249 33 26 C29.10816234 29.42009976 25.91780909 30.12880272 20.8125 30.0625 C19.91144531 30.05347656 19.01039063 30.04445313 18.08203125 30.03515625 C17.39496094 30.02355469 16.70789063 30.01195312 16 30 C16 31.98 16 33.96 16 36 C17.32 36 18.64 36 20 36 C20 39.3 20 42.6 20 46 C13.4 46 6.8 46 0 46 C0 42.7 0 39.4 0 36 C1.65 36 3.3 36 5 36 C5 27.42 5 18.84 5 10 C3.35 10 1.7 10 0 10 C-1.231394 6.30581799 -0.64432764 3.7943739 0 0 Z M16 10 C16 13.3 16 16.6 16 20 C17.299375 19.855625 18.59875 19.71125 19.9375 19.5625 C20.66839844 19.48128906 21.39929688 19.40007812 22.15234375 19.31640625 C24.01140229 19.18113386 24.01140229 19.18113386 25 18 C25.2500773 15.54190002 25.2500773 15.54190002 25 13 C22.23776722 10.23776722 19.79293383 10.42143709 16 10 Z " fill="#E9E9E9" transform="translate(374,246)"/>
<path d="M0 0 C3.69523952 0.71923208 3.69523952 0.71923208 7 1 C8.35015859 5.05047576 7.62084998 7.7920168 7 12 C5.2507786 12.08142927 3.50045458 12.13938541 1.75 12.1875 C0.77546875 12.22230469 -0.1990625 12.25710938 -1.203125 12.29296875 C-4.42642789 11.95533227 -5.53330995 11.00029907 -8 9 C-12.14268205 8.63011767 -15.56882841 8.45839141 -19 11 C-20.90671169 14.07797744 -21.24773531 16.40778523 -21.1875 20 C-21.18105469 20.845625 -21.17460937 21.69125 -21.16796875 22.5625 C-21.01000169 24.85485919 -20.72304533 26.82122342 -20 29 C-16.99995925 31.4000326 -13.56785127 31.40079646 -9.86328125 31.33984375 C-7.75818266 31.15500903 -7.75818266 31.15500903 -6.1875 28.9375 C-4 27 -4 27 -1.31640625 26.95703125 C1.4744002 27.22366881 4.23139706 27.56084229 7 28 C7.91361119 30.46564948 8.19903424 31.55693247 7.1015625 34 C3.18501809 39.30494904 -0.55190655 42.33865547 -7 44 C-12.82641398 44.8671872 -17.95327928 44.41250049 -23.11328125 41.4609375 C-28.83523574 37.03027295 -32.82697625 31.16847848 -34 24 C-34.70716413 15.08973191 -32.13773873 8.67418751 -26.609375 1.6953125 C-19.36059069 -5.94054282 -8.24335477 -5.20632933 0 0 Z " fill="#E6E6E6" transform="translate(487,249)"/>
<path d="M0 0 C0.86512683 2.71073075 1.29016072 4.2205657 1 7 C-1.59618341 11.45280121 -5.1213052 15.1213052 -8.75 18.75 C-12.34426433 23.94171514 -14.49692184 30.84193341 -13.734375 37.22265625 C-13.23615166 38.84188211 -12.62352653 40.42477508 -12 42 C-11.875 44.9375 -11.875 44.9375 -12 47 C-15.21451269 48.60725635 -18.43612536 48.05748185 -22 48 C-25.78348133 40.43303734 -25.30490768 34.05574455 -24.0234375 25.8828125 C-24.01570313 25.26148438 -24.00796875 24.64015625 -24 24 C-24.66 23.34 -25.32 22.68 -26 22 C-25.62720925 17.52651095 -22.54295455 15.0942474 -19.59375 12 C-17.95345747 9.94159369 -17.41291936 8.56927601 -17 6 C-16.34 6 -15.68 6 -15 6 C-15 5.34 -15 4.68 -15 4 C-13.06767179 3.13419713 -11.12892806 2.28270059 -9.1875 1.4375 C-8.10855469 0.96183594 -7.02960938 0.48617187 -5.91796875 -0.00390625 C-3 -1 -3 -1 0 0 Z " fill="#E8E8E8" transform="translate(308,174)"/>
<path d="M0 0 C1.32 0 2.64 0 4 0 C4.99 1.98 5.98 3.96 7 6 C7.99 4.02 8.98 2.04 10 0 C11.32 0.33 12.64 0.66 14 1 C14 4.96 14 8.92 14 13 C13.01 13.33 12.02 13.66 11 14 C11 13.01 11 12.02 11 11 C10.34 11 9.68 11 9 11 C9 11.66 9 12.32 9 13 C8.01 13.33 7.02 13.66 6 14 C5.01 13.01 4.02 12.02 3 11 C3 11.99 3 12.98 3 14 C2.01 13.67 1.02 13.34 0 13 C0 8.71 0 4.42 0 0 Z " fill="#A0A0A0" transform="translate(195,301)"/>
<path d="M0 0 C1.9375 0.125 1.9375 0.125 4 1 C5.25 3.5625 5.25 3.5625 6 6 C7.32 4.02 8.64 2.04 10 0 C10.99 0.33 11.98 0.66 13 1 C13 4.96 13 8.92 13 13 C12.01 13.33 11.02 13.66 10 14 C9.67 13.34 9.34 12.68 9 12 C8.401875 12.33 7.80375 12.66 7.1875 13 C4.01029411 14.45243698 2.28700877 14.09566959 -1 13 C-1.02686553 11.02090602 -1.04633375 9.04171029 -1.0625 7.0625 C-1.07410156 5.96035156 -1.08570313 4.85820312 -1.09765625 3.72265625 C-1 1 -1 1 0 0 Z " fill="#E3E3E3" transform="translate(408,301)"/>
<path d="M0 0 C2.375 1.625 2.375 1.625 4 4 C4.50299316 8.10777749 4.32749345 9.50875983 2 13 C-1.3125 14 -1.3125 14 -5 14 C-8 11.9375 -8 11.9375 -10 9 C-10 5.7377941 -9.55258481 3.87250234 -7.8125 1.125 C-5.05655076 -0.58558918 -3.17374516 -0.45339217 0 0 Z M-4 3 C-4.66 3.66 -5.32 4.32 -6 5 C-5.67958603 7.60280568 -5.67958603 7.60280568 -5 10 C-4.01 10.33 -3.02 10.66 -2 11 C-1.01 10.01 -0.02 9.02 1 8 C0.20882096 6.00016466 0.20882096 6.00016466 -1 4 C-1.99 3.67 -2.98 3.34 -4 3 Z " fill="#979797" transform="translate(183,301)"/>
<path d="M0 0 C2.0625 2.1875 2.0625 2.1875 3 5 C2.375 8.1875 2.375 8.1875 1 11 C-2 13 -2 13 -5.5625 12.75 C-9 12 -9 12 -11 10 C-11.67681895 2.89340102 -11.67681895 2.89340102 -9.4375 -0.0625 C-5.874103 -1.43303731 -3.6365931 -1.05791799 0 0 Z M-8 4 C-7.67 5.65 -7.34 7.3 -7 9 C-5.10820797 9.6814823 -5.10820797 9.6814823 -3 10 C-2.34 9.34 -1.68 8.68 -1 8 C-1.32041397 5.39719432 -1.32041397 5.39719432 -2 3 C-5.05270463 2.84188612 -5.05270463 2.84188612 -8 4 Z " fill="#9B9B9B" transform="translate(246,302)"/>
<path d="M0 0 C2.88575819 0.39803561 3.82189513 0.79009069 5.75 3.0625 C6.1625 3.701875 6.575 4.34125 7 5 C7.33 3.35 7.66 1.7 8 0 C8.66 0 9.32 0 10 0 C10.19627391 1.58226965 10.38165538 3.16589271 10.5625 4.75 C10.66691406 5.63171875 10.77132813 6.5134375 10.87890625 7.421875 C10.99456676 9.88432451 10.73638695 11.66538064 10 14 C8 13 6 12 4 11 C3.01 12.485 3.01 12.485 2 14 C1.34 14 0.68 14 0 14 C-0.91297308 9.02936879 -0.91297308 4.97063121 0 0 Z " fill="#C5C6C5" transform="translate(375,301)"/>
<path d="M0 0 C2.64 0 5.28 0 8 0 C8 1.32 8 2.64 8 4 C8.20625 4.680625 8.4125 5.36125 8.625 6.0625 C9 8 9 8 7 11 C7.66 11 8.32 11 9 11 C8.67 11.99 8.34 12.98 8 14 C5.66705225 14.04241723 3.33297433 14.04092937 1 14 C0 13 0 13 -0.09765625 10.05859375 C-0.08605469 8.86363281 -0.07445312 7.66867187 -0.0625 6.4375 C-0.05347656 5.23996094 -0.04445312 4.04242188 -0.03515625 2.80859375 C-0.02355469 1.88175781 -0.01195312 0.95492188 0 0 Z M3 9 C3.33 9.66 3.66 10.32 4 11 C4.33 10.34 4.66 9.68 5 9 C4.34 9 3.68 9 3 9 Z " fill="#B7B7B7" transform="translate(218,301)"/>
<path d="M0 0 C0.66 0 1.32 0 2 0 C2 1.65 2 3.3 2 5 C3.65 5 5.3 5 7 5 C7 3.35 7 1.7 7 0 C7.99 0.33 8.98 0.66 10 1 C10 4.96 10 8.92 10 13 C9.01 13.33 8.02 13.66 7 14 C6.67 13.01 6.34 12.02 6 11 C5.34 11 4.68 11 4 11 C4 10.01 4 9.02 4 8 C3.34 9.98 2.68 11.96 2 14 C1.01 13.67 0.02 13.34 -1 13 C-1.02686553 11.02090602 -1.04633375 9.04171029 -1.0625 7.0625 C-1.07410156 5.96035156 -1.08570313 4.85820312 -1.09765625 3.72265625 C-1 1 -1 1 0 0 Z " fill="#9A9A9A" transform="translate(155,301)"/>
<path d="M0 0 C0.99 0 1.98 0 3 0 C3.86604534 1.76505435 4.71748642 3.53728074 5.5625 5.3125 C6.27599609 6.79169922 6.27599609 6.79169922 7.00390625 8.30078125 C8 11 8 11 7 14 C6.01 13.67 5.02 13.34 4 13 C4 12.34 4 11.68 4 11 C2.35 11 0.7 11 -1 11 C-1.33 11.99 -1.66 12.98 -2 14 C-2.99 13.67 -3.98 13.34 -5 13 C-4.54554036 11.58208592 -4.08625056 10.16571954 -3.625 8.75 C-3.24214844 7.56664062 -3.24214844 7.56664062 -2.8515625 6.359375 C-2.04826333 4.13372042 -1.10288338 2.09068328 0 0 Z M1 6 C2 8 2 8 2 8 Z " fill="#C0C0C0" transform="translate(278,301)"/>
<path d="M0 0 C3.41728336 1.06053621 4.04915225 2.08982997 5.8125 5.3125 C6.97744059 8.92994708 7.17625205 10.47124386 6 14 C5.01 13.34 4.02 12.68 3 12 C0.48400985 12.33652369 0.48400985 12.33652369 -2 13 C-2.99 13 -3.98 13 -5 13 C-4.54554036 11.58208592 -4.08625056 10.16571954 -3.625 8.75 C-3.24214844 7.56664062 -3.24214844 7.56664062 -2.8515625 6.359375 C-2.04826333 4.13372042 -1.10288338 2.09068328 0 0 Z " fill="#A8A8A8" transform="translate(434,301)"/>
<path d="M0 0 C1.890625 0.23046875 1.890625 0.23046875 4 1 C5.046875 2.92578125 5.046875 2.92578125 5.75 5.3125 C5.99234375 6.09238281 6.2346875 6.87226563 6.484375 7.67578125 C7 10 7 10 7 14 C6.01 13.67 5.02 13.34 4 13 C4 12.34 4 11.68 4 11 C2.35 11 0.7 11 -1 11 C-1 11.66 -1 12.32 -1 13 C-1.99 13.33 -2.98 13.66 -4 14 C-4.33 13.34 -4.66 12.68 -5 12 C-4.26821134 9.92803369 -3.44100997 7.8891448 -2.5625 5.875 C-2.08941406 4.77929688 -1.61632812 3.68359375 -1.12890625 2.5546875 C-0.75636719 1.71164062 -0.38382812 0.86859375 0 0 Z M1 6 C2 8 2 8 2 8 Z " fill="#A2A2A2" transform="translate(359,301)"/>
<path d="M0 0 C2.54344286 2.27301934 3.87616437 4.45086481 5.25 7.5625 C5.60578125 8.34753906 5.9615625 9.13257813 6.328125 9.94140625 C7 12 7 12 6 14 C5.4225 13.690625 4.845 13.38125 4.25 13.0625 C2.15705816 12.07416636 0.25464725 11.4831387 -2 11 C-2 11.66 -2 12.32 -2 13 C-2.99 13.33 -3.98 13.66 -5 14 C-4.34694438 9.53745327 -3.42765922 5.28297767 -2 1 C-1.34 0.67 -0.68 0.34 0 0 Z " fill="#CACACA" transform="translate(328,301)"/>
<path d="M0 0 C7.875 0.875 7.875 0.875 9 2 C9.04063832 3.66617115 9.042721 5.33388095 9 7 C7.02 7.66 5.04 8.32 3 9 C2.67 10.65 2.34 12.3 2 14 C1.34 14 0.68 14 0 14 C-1.10370043 10.6888987 -0.92673641 8.75251051 -0.5625 5.3125 C-0.46066406 4.31863281 -0.35882813 3.32476562 -0.25390625 2.30078125 C-0.17011719 1.54152344 -0.08632813 0.78226562 0 0 Z " fill="#919191" transform="translate(257,301)"/>
<path d="M0 0 C1.32 0 2.64 0 4 0 C8 6.75 8 6.75 8 9 C7.01 9.495 7.01 9.495 6 10 C5.67 10.66 5.34 11.32 5 12 C4.34 11.67 3.68 11.34 3 11 C3 11.99 3 12.98 3 14 C2.01 13.67 1.02 13.34 0 13 C0 8.71 0 4.42 0 0 Z " fill="#898989" transform="translate(195,301)"/>
<path d="M0 0 C3.3 0 6.6 0 10 0 C9.67 1.32 9.34 2.64 9 4 C8.34 4 7.68 4 7 4 C6.67 6.97 6.34 9.94 6 13 C5.01 13 4.02 13 3 13 C3 10.03 3 7.06 3 4 C1.68 4 0.36 4 -1 4 C-0.67 2.68 -0.34 1.36 0 0 Z " fill="#B1B1B1" transform="translate(293,301)"/>
<path d="M0 0 C0.99 0.33 1.98 0.66 3 1 C3 4.3 3 7.6 3 11 C4.65 11 6.3 11 8 11 C7.67 11.99 7.34 12.98 7 14 C4.66705225 14.04241723 2.33297433 14.04092937 0 14 C-1 13 -1 13 -1.1328125 10.3125 C-1.13023437 9.219375 -1.12765625 8.12625 -1.125 7 C-1.12757813 5.906875 -1.13015625 4.81375 -1.1328125 3.6875 C-1 1 -1 1 0 0 Z " fill="#A7A7A7" transform="translate(450,301)"/>
<path d="M0 0 C0.99 0.33 1.98 0.66 3 1 C3 4.96 3 8.92 3 13 C2.01 13.33 1.02 13.66 0 14 C0 12.35 0 10.7 0 9 C-0.45375 9.495 -0.9075 9.99 -1.375 10.5 C-3 12 -3 12 -5 12 C-5 10.68 -5 9.36 -5 8 C-4.34 8 -3.68 8 -3 8 C-2.87625 7.236875 -2.7525 6.47375 -2.625 5.6875 C-2 3 -2 3 0 0 Z " fill="#B8B8B8" transform="translate(418,301)"/>
<path d="M0 0 C0 0.33 0 0.66 0 1 C-0.845625 1.165 -1.69125 1.33 -2.5625 1.5 C-6.64772667 3.28264437 -8.35807668 5.3875933 -11.140625 8.7734375 C-15.54528342 14.04792343 -20.50085905 18.87564429 -26 23 C-26.66 22.67 -27.32 22.34 -28 22 C-25.54976242 19.49195282 -23.08852402 16.9949924 -20.625 14.5 C-19.57699219 13.42685547 -19.57699219 13.42685547 -18.5078125 12.33203125 C-17.8375 11.65527344 -17.1671875 10.97851562 -16.4765625 10.28125 C-15.85861816 9.65283203 -15.24067383 9.02441406 -14.60400391 8.37695312 C-13 7 -13 7 -11 7 C-10.731875 6.401875 -10.46375 5.80375 -10.1875 5.1875 C-7.50659661 0.24899375 -5.64883782 -0.37658919 0 0 Z " fill="#A5A5A5" transform="translate(336,85)"/>
<path d="M0 0 C0.99 0.66 1.98 1.32 3 2 C3.1875 5.125 3.1875 5.125 3 8 C2.34 6.68 1.68 5.36 1 4 C-0.65 4 -2.3 4 -4 4 C-4.66 6.31 -5.32 8.62 -6 11 C-6.33 10.01 -6.66 9.02 -7 8 C-7.66 8 -8.32 8 -9 8 C-9.22223194 5.25913944 -9.34781139 3.56036279 -7.875 1.1875 C-5.15523346 -0.53501881 -3.15413751 -0.32855599 0 0 Z " fill="#B2B2B2" transform="translate(183,301)"/>
<path d="M0 0 C0.66 0 1.32 0 2 0 C2.19627391 1.58226965 2.38165538 3.16589271 2.5625 4.75 C2.66691406 5.63171875 2.77132813 6.5134375 2.87890625 7.421875 C2.99456676 9.88432451 2.73638695 11.66538064 2 14 C-0.88437779 12.70700306 -2.87219421 11.34058637 -5 9 C-4.34 8.34 -3.68 7.68 -3 7 C-2.01 7 -1.02 7 0 7 C0 4.69 0 2.38 0 0 Z " fill="#D7DAD8" transform="translate(383,301)"/>
<path d="M0 0 C0.99 0.33 1.98 0.66 3 1 C3 4.63 3 8.26 3 12 C1.68 12.33 0.36 12.66 -1 13 C-1.02686553 11.02090602 -1.04633375 9.04171029 -1.0625 7.0625 C-1.07410156 5.96035156 -1.08570313 4.85820312 -1.09765625 3.72265625 C-1 1 -1 1 0 0 Z " fill="#A8A8A8" transform="translate(396,301)"/>
<path d="M0 0 C0.99 0.33 1.98 0.66 3 1 C3 4.96 3 8.92 3 13 C2.01 13 1.02 13 0 13 C0 8.71 0 4.42 0 0 Z " fill="#A0A0A0" transform="translate(311,301)"/>
<path d="M0 0 C0.99 0 1.98 0 3 0 C4.125 2.8125 4.125 2.8125 5 6 C4.01 7.485 4.01 7.485 3 9 C1 9 -1 9 -3 9 C-2.01 6.03 -1.02 3.06 0 0 Z M1 6 C2 8 2 8 2 8 Z " fill="#9D9D9D" transform="translate(278,301)"/>
<path d="M0 0 C6.39863326 0.36218679 6.39863326 0.36218679 9.0625 3.1875 C10.27013551 6.81040654 9.51465672 8.57209268 8 12 C7.01 12 6.02 12 5 12 C5 9.66666667 5 7.33333333 5 5 C5.66 4.67 6.32 4.34 7 4 C4.69 3.01 2.38 2.02 0 1 C0 0.67 0 0.34 0 0 Z " fill="#7A7A7A" transform="translate(239,301)"/>
<path d="M0 0 C0.66 0.66 1.32 1.32 2 2 C1.625 4.625 1.625 4.625 1 7 C0.01 6.34 -0.98 5.68 -2 5 C-4.51599015 5.33652369 -4.51599015 5.33652369 -7 6 C-7.99 6 -8.98 6 -10 6 C-9.67 4.35 -9.34 2.7 -9 1 C-8.34 1.66 -7.68 2.32 -7 3 C-3.40320934 2.67673447 -3.40320934 2.67673447 0 2 C0 1.34 0 0.68 0 0 Z " fill="#A3A3A3" transform="translate(439,308)"/>
<path d="M0 0 C0.33 0 0.66 0 1 0 C1 1.65 1 3.3 1 5 C3.97 5.33 6.94 5.66 10 6 C9.34 7.32 8.68 8.64 8 10 C5.6875 10.25 5.6875 10.25 3 10 C0.34684029 7.62130509 0.01896655 6.32875347 -0.1875 2.75 C-0.125625 1.8425 -0.06375 0.935 0 0 Z " fill="#CACACA" transform="translate(236,305)"/>
<path d="M0 0 C0.33 0 0.66 0 1 0 C1 3.96 1 7.92 1 12 C0.34 12 -0.32 12 -1 12 C-1.33 11.01 -1.66 10.02 -2 9 C-2.66 9 -3.32 9 -4 9 C-4 7.35 -4 5.7 -4 4 C-2.68 4 -1.36 4 0 4 C0 2.68 0 1.36 0 0 Z " fill="#D0D0D0" transform="translate(163,303)"/>
<path d="M0 0 C2.79828356 0.38597015 3.8205884 0.80136573 5.75 2.9375 C7 5 7 5 7 7 C5.02 7.99 5.02 7.99 3 9 C2.67 7.68 2.34 6.36 2 5 C2.66 5 3.32 5 4 5 C3.34 4.01 2.68 3.02 2 2 C1.67 3.65 1.34 5.3 1 7 C0.67 7 0.34 7 0 7 C0 4.69 0 2.38 0 0 Z " fill="#919191" transform="translate(375,301)"/>
<path d="M0 0 C0.66 0 1.32 0 2 0 C2.33 0.66 2.66 1.32 3 2 C3.66 1.34 4.32 0.68 5 0 C5.25 5.625 5.25 5.625 3 9 C2.01 8.67 1.02 8.34 0 8 C-0.33 7.34 -0.66 6.68 -1 6 C-0.34 6 0.32 6 1 6 C0.67 4.02 0.34 2.04 0 0 Z " fill="#828282" transform="translate(182,305)"/>
<path d="M0 0 C1.5625 1.1875 1.5625 1.1875 3 3 C2.6875 5.6875 2.6875 5.6875 2 8 C0.35 7.67 -1.3 7.34 -3 7 C-2.625 4.0625 -2.625 4.0625 -2 1 C-1.34 0.67 -0.68 0.34 0 0 Z " fill="#999999" transform="translate(328,301)"/>
<path d="M0 0 C0.99 1.32 1.98 2.64 3 4 C2.34 4 1.68 4 1 4 C1 5.32 1 6.64 1 8 C1.66 8 2.32 8 3 8 C3.33 7.01 3.66 6.02 4 5 C4.33 5.99 4.66 6.98 5 8 C3.02 8.99 3.02 8.99 1 10 C0.67 8.68 0.34 7.36 0 6 C-0.66 6 -1.32 6 -2 6 C-2 5.01 -2 4.02 -2 3 C-1.34 3 -0.68 3 0 3 C0 2.01 0 1.02 0 0 Z " fill="#8F8F8F" transform="translate(412,305)"/>
<path d="M0 0 C0.99 0.33 1.98 0.66 3 1 C1.71451591 2.33929505 0.42141845 3.67128643 -0.875 5 C-1.59429687 5.7425 -2.31359375 6.485 -3.0546875 7.25 C-5 9 -5 9 -7 9 C-5.44499019 5.18315774 -2.96404505 2.80804268 0 0 Z " fill="#ABABAB" transform="translate(336,248)"/>
<path d="M0 0 C0.66 0 1.32 0 2 0 C2.33 1.32 2.66 2.64 3 4 C2.34 4 1.68 4 1 4 C1.33 6.97 1.66 9.94 2 13 C1.34 13 0.68 13 0 13 C0 8.71 0 4.42 0 0 Z " fill="#E3E3E3" transform="translate(196,302)"/>
<path d="M0 0 C0.66 0.33 1.32 0.66 2 1 C1.67 1.66 1.34 2.32 1 3 C2.98 3 4.96 3 7 3 C6.67 3.99 6.34 4.98 6 6 C3.69 6 1.38 6 -1 6 C-0.67 4.02 -0.34 2.04 0 0 Z " fill="#818181" transform="translate(220,309)"/>
<path d="M0 0 C2.0625 0.4375 2.0625 0.4375 4 1 C3.67 1.99 3.34 2.98 3 4 C3 3.34 3 2.68 3 2 C2.01 2.495 2.01 2.495 1 3 C0.53248212 5.35599235 0.53248212 5.35599235 0.375 8.0625 C0.30023438 8.98160156 0.22546875 9.90070313 0.1484375 10.84765625 C0.09945313 11.55792969 0.05046875 12.26820313 0 13 C-0.33 13 -0.66 13 -1 13 C-1.02686553 11.02090602 -1.04633375 9.04171029 -1.0625 7.0625 C-1.07410156 5.96035156 -1.08570313 4.85820312 -1.09765625 3.72265625 C-1 1 -1 1 0 0 Z " fill="#6E6E6E" transform="translate(408,301)"/>
<path d="M0 0 C0.99 0.33 1.98 0.66 3 1 C3 1.99 3 2.98 3 4 C2.01 4 1.02 4 0 4 C-0.33 5.32 -0.66 6.64 -1 8 C-1.66 8 -2.32 8 -3 8 C-1.125 2.25 -1.125 2.25 0 0 Z " fill="#D7D7D7" transform="translate(359,302)"/>
<path d="M0 0 C1.5625 1.8125 1.5625 1.8125 3 4 C2.67 4.99 2.34 5.98 2 7 C-0.66666667 5.66666667 -3.33333333 4.33333333 -6 3 C-4.35 3 -2.7 3 -1 3 C-0.67 2.01 -0.34 1.02 0 0 Z " fill="#878787" transform="translate(332,308)"/>
<path d="M0 0 C2.64 0.33 5.28 0.66 8 1 C8 1.33 8 1.66 8 2 C6.35 2 4.7 2 3 2 C2.67 2.99 2.34 3.98 2 5 C1.01 4.67 0.02 4.34 -1 4 C-0.67 2.68 -0.34 1.36 0 0 Z " fill="#727272" transform="translate(274,310)"/>
<path d="M0 0 C0 0.66 0 1.32 0 2 C-2.64 2.66 -5.28 3.32 -8 4 C-8 3.01 -8 2.02 -8 1 C-5.29120665 -0.35439668 -2.99066732 -0.06501451 0 0 Z " fill="#F3F3F3" transform="translate(439,308)"/>
<path d="M0 0 C2.97 0.495 2.97 0.495 6 1 C6.33 2.32 6.66 3.64 7 5 C6.34 5 5.68 5 5 5 C4.67 4.34 4.34 3.68 4 3 C3.01 2.67 2.02 2.34 1 2 C0.67 2.99 0.34 3.98 0 5 C0 3.35 0 1.7 0 0 Z " fill="#F8F8F8" transform="translate(258,302)"/>
<path d="M0 0 C0.66 0.99 1.32 1.98 2 3 C1.34 3 0.68 3 0 3 C0 3.66 0 4.32 0 5 C-2.70879335 6.35439668 -5.00933268 6.06501451 -8 6 C-7.67 5.34 -7.34 4.68 -7 4 C-5.68 4 -4.36 4 -3 4 C-1.22590192 2.07977297 -1.22590192 2.07977297 0 0 Z " fill="#A5A5A5" transform="translate(246,169)"/>
<path d="M0 0 C0.99 0.33 1.98 0.66 3 1 C3 2.98 3 4.96 3 7 C0.525 6.01 0.525 6.01 -2 5 C-1.01 4.67 -0.02 4.34 1 4 C0.67 2.68 0.34 1.36 0 0 Z " fill="#E2E2E2" transform="translate(329,305)"/>
<path d="M0 0 C2.09749995 2.35968744 2.96905704 3.54616994 3.1875 6.75 C3.0946875 7.86375 3.0946875 7.86375 3 9 C2.01 9 1.02 9 0 9 C0 6.03 0 3.06 0 0 Z " fill="#8B8B8B" transform="translate(296,305)"/>
</svg>
